<?xml version="1.0" standalone="no"?>
<!DOCTYPE svg PUBLIC "-//W3C//DTD SVG 20010904//EN"
 "http://www.w3.org/TR/2001/REC-SVG-20010904/DTD/svg10.dtd">
<svg version="1.0" xmlns="http://www.w3.org/2000/svg"
 width="819.000000pt" height="819.000000pt" viewBox="0 0 819.000000 819.000000"
 preserveAspectRatio="xMidYMid meet">
<metadata>
Created by potrace 1.14, written by Peter Selinger 2001-2017
</metadata>
<g transform="translate(0.000000,819.000000) scale(0.100000,-0.100000)"
fill="#000000" stroke="none">
<path d="M3868 8185 c-2 -1 -48 -6 -103 -9 -55 -4 -111 -9 -125 -11 -140 -17
-185 -24 -305 -46 -225 -41 -490 -116 -695 -196 -183 -72 -219 -88 -390 -173
-74 -37 -159 -81 -188 -99 -29 -17 -55 -31 -58 -31 -3 0 -10 -4 -17 -10 -7 -5
-68 -46 -137 -91 -115 -75 -235 -159 -285 -200 -186 -154 -225 -188 -370 -334
-163 -164 -309 -332 -395 -455 -13 -19 -27 -37 -30 -40 -14 -12 -153 -225
-213 -327 -240 -405 -419 -893 -501 -1363 -3 -14 -10 -61 -16 -105 -6 -44 -13
-91 -16 -105 -20 -121 -27 -628 -11 -820 8 -99 41 -353 56 -430 43 -224 134
-550 191 -685 4 -11 14 -36 21 -55 22 -64 132 -304 182 -400 257 -492 625
-940 1057 -1291 486 -394 1052 -666 1693 -815 9 -2 27 -6 40 -9 12 -3 38 -8
57 -11 19 -3 60 -9 90 -14 30 -5 69 -12 85 -14 187 -31 324 -40 610 -40 273 0
406 8 565 34 30 5 73 12 95 15 23 3 52 7 65 10 14 3 41 8 60 11 165 29 607
159 714 210 28 13 53 24 58 24 16 0 299 135 413 197 254 140 582 372 766 543
286 267 482 495 681 792 43 64 78 119 78 121 0 2 26 46 57 98 106 177 244 480
326 719 46 135 119 401 133 490 2 14 8 45 14 70 11 55 27 158 35 225 3 28 8
64 10 81 13 93 19 230 19 404 0 174 -10 422 -19 469 -3 16 -7 45 -21 161 -2
19 -9 60 -14 90 -5 30 -14 83 -20 117 -6 35 -15 75 -21 90 -6 16 -10 28 -9 28
2 0 -11 66 -15 85 -1 3 -5 19 -9 35 -4 17 -11 41 -16 55 -4 14 -18 59 -30 100
-43 145 -98 302 -134 385 -246 563 -538 988 -956 1390 -398 382 -827 654
-1375 870 -160 63 -542 172 -667 190 -21 2 -57 9 -80 14 -24 5 -67 12 -97 16
-30 4 -61 8 -70 10 -9 1 -43 6 -76 9 -33 4 -78 9 -100 12 -45 5 -582 14 -587
9z"/>
</g>
</svg>
